<mxfile host="65bd71144e">
    <diagram id="CMdIjjxED-EuQOnv28zZ" name="Pagina-1">
        <mxGraphModel dx="903" dy="865" grid="1" gridSize="10" guides="1" tooltips="1" connect="1" arrows="1" fold="1" page="1" pageScale="1" pageWidth="827" pageHeight="1169" math="0" shadow="0">
            <root>
                <mxCell id="0"/>
                <mxCell id="1" parent="0"/>
                <mxCell id="2" value="" style="rounded=0;whiteSpace=wrap;html=1;" vertex="1" parent="1">
                    <mxGeometry x="240" y="270" width="360" height="300" as="geometry"/>
                </mxCell>
                <mxCell id="3" value="*" style="text;html=1;strokeColor=none;fillColor=none;align=center;verticalAlign=middle;whiteSpace=wrap;rounded=0;fontSize=30;" vertex="1" parent="1">
                    <mxGeometry x="240" y="270" width="60" height="50" as="geometry"/>
                </mxCell>
                <mxCell id="5" value="*" style="text;html=1;strokeColor=none;fillColor=none;align=center;verticalAlign=middle;whiteSpace=wrap;rounded=0;fontSize=30;" vertex="1" parent="1">
                    <mxGeometry x="240" y="320" width="60" height="50" as="geometry"/>
                </mxCell>
                <mxCell id="6" value="*" style="text;html=1;strokeColor=none;fillColor=none;align=center;verticalAlign=middle;whiteSpace=wrap;rounded=0;fontSize=30;" vertex="1" parent="1">
                    <mxGeometry x="300" y="320" width="60" height="50" as="geometry"/>
                </mxCell>
                <mxCell id="8" value="*" style="text;html=1;strokeColor=none;fillColor=none;align=center;verticalAlign=middle;whiteSpace=wrap;rounded=0;fontSize=30;" vertex="1" parent="1">
                    <mxGeometry x="240" y="370" width="60" height="50" as="geometry"/>
                </mxCell>
                <mxCell id="9" value="*" style="text;html=1;strokeColor=none;fillColor=none;align=center;verticalAlign=middle;whiteSpace=wrap;rounded=0;fontSize=30;" vertex="1" parent="1">
                    <mxGeometry x="300" y="370" width="60" height="50" as="geometry"/>
                </mxCell>
                <mxCell id="10" value="*" style="text;html=1;strokeColor=none;fillColor=none;align=center;verticalAlign=middle;whiteSpace=wrap;rounded=0;fontSize=30;" vertex="1" parent="1">
                    <mxGeometry x="360" y="370" width="60" height="50" as="geometry"/>
                </mxCell>
                <mxCell id="11" value="*" style="text;html=1;strokeColor=none;fillColor=none;align=center;verticalAlign=middle;whiteSpace=wrap;rounded=0;fontSize=30;" vertex="1" parent="1">
                    <mxGeometry x="240" y="420" width="60" height="50" as="geometry"/>
                </mxCell>
                <mxCell id="12" value="*" style="text;html=1;strokeColor=none;fillColor=none;align=center;verticalAlign=middle;whiteSpace=wrap;rounded=0;fontSize=30;" vertex="1" parent="1">
                    <mxGeometry x="300" y="420" width="60" height="50" as="geometry"/>
                </mxCell>
                <mxCell id="13" value="*" style="text;html=1;strokeColor=none;fillColor=none;align=center;verticalAlign=middle;whiteSpace=wrap;rounded=0;fontSize=30;" vertex="1" parent="1">
                    <mxGeometry x="360" y="420" width="60" height="50" as="geometry"/>
                </mxCell>
                <mxCell id="14" value="*" style="text;html=1;strokeColor=none;fillColor=none;align=center;verticalAlign=middle;whiteSpace=wrap;rounded=0;fontSize=30;" vertex="1" parent="1">
                    <mxGeometry x="420" y="420" width="60" height="50" as="geometry"/>
                </mxCell>
                <mxCell id="15" value="*" style="text;html=1;strokeColor=none;fillColor=none;align=center;verticalAlign=middle;whiteSpace=wrap;rounded=0;fontSize=30;" vertex="1" parent="1">
                    <mxGeometry x="480" y="470" width="60" height="50" as="geometry"/>
                </mxCell>
                <mxCell id="17" value="*" style="text;html=1;strokeColor=none;fillColor=none;align=center;verticalAlign=middle;whiteSpace=wrap;rounded=0;fontSize=30;" vertex="1" parent="1">
                    <mxGeometry x="240" y="470" width="60" height="50" as="geometry"/>
                </mxCell>
                <mxCell id="18" value="*" style="text;html=1;strokeColor=none;fillColor=none;align=center;verticalAlign=middle;whiteSpace=wrap;rounded=0;fontSize=30;" vertex="1" parent="1">
                    <mxGeometry x="300" y="470" width="60" height="50" as="geometry"/>
                </mxCell>
                <mxCell id="19" value="*" style="text;html=1;strokeColor=none;fillColor=none;align=center;verticalAlign=middle;whiteSpace=wrap;rounded=0;fontSize=30;" vertex="1" parent="1">
                    <mxGeometry x="360" y="470" width="60" height="50" as="geometry"/>
                </mxCell>
                <mxCell id="20" value="*" style="text;html=1;strokeColor=none;fillColor=none;align=center;verticalAlign=middle;whiteSpace=wrap;rounded=0;fontSize=30;" vertex="1" parent="1">
                    <mxGeometry x="420" y="470" width="60" height="50" as="geometry"/>
                </mxCell>
                <mxCell id="21" value="*" style="text;html=1;strokeColor=none;fillColor=none;align=center;verticalAlign=middle;whiteSpace=wrap;rounded=0;fontSize=30;" vertex="1" parent="1">
                    <mxGeometry x="480" y="520" width="60" height="50" as="geometry"/>
                </mxCell>
                <mxCell id="22" value="*" style="text;html=1;strokeColor=none;fillColor=none;align=center;verticalAlign=middle;whiteSpace=wrap;rounded=0;fontSize=30;" vertex="1" parent="1">
                    <mxGeometry x="240" y="520" width="60" height="50" as="geometry"/>
                </mxCell>
                <mxCell id="23" value="*" style="text;html=1;strokeColor=none;fillColor=none;align=center;verticalAlign=middle;whiteSpace=wrap;rounded=0;fontSize=30;" vertex="1" parent="1">
                    <mxGeometry x="300" y="520" width="60" height="50" as="geometry"/>
                </mxCell>
                <mxCell id="24" value="*" style="text;html=1;strokeColor=none;fillColor=none;align=center;verticalAlign=middle;whiteSpace=wrap;rounded=0;fontSize=30;" vertex="1" parent="1">
                    <mxGeometry x="360" y="520" width="60" height="50" as="geometry"/>
                </mxCell>
                <mxCell id="25" value="*" style="text;html=1;strokeColor=none;fillColor=none;align=center;verticalAlign=middle;whiteSpace=wrap;rounded=0;fontSize=30;" vertex="1" parent="1">
                    <mxGeometry x="420" y="520" width="60" height="50" as="geometry"/>
                </mxCell>
                <mxCell id="26" value="*" style="text;html=1;strokeColor=none;fillColor=none;align=center;verticalAlign=middle;whiteSpace=wrap;rounded=0;fontSize=30;" vertex="1" parent="1">
                    <mxGeometry x="540" y="520" width="60" height="50" as="geometry"/>
                </mxCell>
                <mxCell id="27" value="Riga 1" style="text;html=1;strokeColor=none;fillColor=none;align=center;verticalAlign=middle;whiteSpace=wrap;rounded=0;fontSize=30;" vertex="1" parent="1">
                    <mxGeometry x="120" y="270" width="100" height="30" as="geometry"/>
                </mxCell>
                <mxCell id="28" value="Riga 2" style="text;html=1;strokeColor=none;fillColor=none;align=center;verticalAlign=middle;whiteSpace=wrap;rounded=0;fontSize=30;" vertex="1" parent="1">
                    <mxGeometry x="120" y="320" width="100" height="30" as="geometry"/>
                </mxCell>
                <mxCell id="29" value="Riga 3" style="text;html=1;strokeColor=none;fillColor=none;align=center;verticalAlign=middle;whiteSpace=wrap;rounded=0;fontSize=30;" vertex="1" parent="1">
                    <mxGeometry x="120" y="370" width="100" height="30" as="geometry"/>
                </mxCell>
                <mxCell id="30" value="Riga 4" style="text;html=1;strokeColor=none;fillColor=none;align=center;verticalAlign=middle;whiteSpace=wrap;rounded=0;fontSize=30;" vertex="1" parent="1">
                    <mxGeometry x="120" y="420" width="100" height="30" as="geometry"/>
                </mxCell>
                <mxCell id="31" value="Riga 5" style="text;html=1;strokeColor=none;fillColor=none;align=center;verticalAlign=middle;whiteSpace=wrap;rounded=0;fontSize=30;" vertex="1" parent="1">
                    <mxGeometry x="120" y="470" width="100" height="30" as="geometry"/>
                </mxCell>
                <mxCell id="32" value="Riga 6" style="text;html=1;strokeColor=none;fillColor=none;align=center;verticalAlign=middle;whiteSpace=wrap;rounded=0;fontSize=30;" vertex="1" parent="1">
                    <mxGeometry x="120" y="520" width="100" height="30" as="geometry"/>
                </mxCell>
                <mxCell id="33" value="Colonna 1" style="text;html=1;strokeColor=none;fillColor=none;align=center;verticalAlign=middle;whiteSpace=wrap;rounded=0;fontSize=30;rotation=-90;" vertex="1" parent="1">
                    <mxGeometry x="200" y="170" width="140" height="30" as="geometry"/>
                </mxCell>
                <mxCell id="34" value="Colonna 2" style="text;html=1;strokeColor=none;fillColor=none;align=center;verticalAlign=middle;whiteSpace=wrap;rounded=0;fontSize=30;rotation=-90;" vertex="1" parent="1">
                    <mxGeometry x="260" y="170" width="140" height="30" as="geometry"/>
                </mxCell>
                <mxCell id="35" value="Colonna 3" style="text;html=1;strokeColor=none;fillColor=none;align=center;verticalAlign=middle;whiteSpace=wrap;rounded=0;fontSize=30;rotation=-90;" vertex="1" parent="1">
                    <mxGeometry x="320" y="170" width="140" height="30" as="geometry"/>
                </mxCell>
                <mxCell id="36" value="Colonna 4" style="text;html=1;strokeColor=none;fillColor=none;align=center;verticalAlign=middle;whiteSpace=wrap;rounded=0;fontSize=30;rotation=-90;" vertex="1" parent="1">
                    <mxGeometry x="380" y="170" width="140" height="30" as="geometry"/>
                </mxCell>
                <mxCell id="37" value="Colonna 5" style="text;html=1;strokeColor=none;fillColor=none;align=center;verticalAlign=middle;whiteSpace=wrap;rounded=0;fontSize=30;rotation=-90;" vertex="1" parent="1">
                    <mxGeometry x="440" y="170" width="140" height="30" as="geometry"/>
                </mxCell>
                <mxCell id="38" value="Colonna 6" style="text;html=1;strokeColor=none;fillColor=none;align=center;verticalAlign=middle;whiteSpace=wrap;rounded=0;fontSize=30;rotation=-90;" vertex="1" parent="1">
                    <mxGeometry x="500" y="170" width="140" height="30" as="geometry"/>
                </mxCell>
                <mxCell id="39" value="&quot;spazio&quot;" style="text;html=1;strokeColor=none;fillColor=none;align=center;verticalAlign=middle;whiteSpace=wrap;rounded=0;fontSize=17;fontStyle=2" vertex="1" parent="1">
                    <mxGeometry x="290" y="280" width="60" height="30" as="geometry"/>
                </mxCell>
                <mxCell id="40" value="&quot;spazio&quot;" style="text;html=1;strokeColor=none;fillColor=none;align=center;verticalAlign=middle;whiteSpace=wrap;rounded=0;fontSize=17;fontStyle=2" vertex="1" parent="1">
                    <mxGeometry x="360" y="280" width="60" height="30" as="geometry"/>
                </mxCell>
                <mxCell id="41" value="&quot;spazio&quot;" style="text;html=1;strokeColor=none;fillColor=none;align=center;verticalAlign=middle;whiteSpace=wrap;rounded=0;fontSize=17;fontStyle=2" vertex="1" parent="1">
                    <mxGeometry x="360" y="330" width="60" height="30" as="geometry"/>
                </mxCell>
                <mxCell id="42" value="&quot;spazio&quot;" style="text;html=1;strokeColor=none;fillColor=none;align=center;verticalAlign=middle;whiteSpace=wrap;rounded=0;fontSize=17;fontStyle=2" vertex="1" parent="1">
                    <mxGeometry x="420" y="330" width="60" height="30" as="geometry"/>
                </mxCell>
                <mxCell id="43" value="&quot;spazio&quot;" style="text;html=1;strokeColor=none;fillColor=none;align=center;verticalAlign=middle;whiteSpace=wrap;rounded=0;fontSize=17;fontStyle=2" vertex="1" parent="1">
                    <mxGeometry x="420" y="380" width="60" height="30" as="geometry"/>
                </mxCell>
                <mxCell id="44" value="&quot;spazio&quot;" style="text;html=1;strokeColor=none;fillColor=none;align=center;verticalAlign=middle;whiteSpace=wrap;rounded=0;fontSize=17;fontStyle=2" vertex="1" parent="1">
                    <mxGeometry x="430" y="280" width="60" height="30" as="geometry"/>
                </mxCell>
                <mxCell id="45" value="&quot;spazio&quot;" style="text;html=1;strokeColor=none;fillColor=none;align=center;verticalAlign=middle;whiteSpace=wrap;rounded=0;fontSize=17;fontStyle=2" vertex="1" parent="1">
                    <mxGeometry x="490" y="280" width="60" height="30" as="geometry"/>
                </mxCell>
                <mxCell id="46" value="&quot;spazio&quot;" style="text;html=1;strokeColor=none;fillColor=none;align=center;verticalAlign=middle;whiteSpace=wrap;rounded=0;fontSize=17;fontStyle=2" vertex="1" parent="1">
                    <mxGeometry x="550" y="280" width="60" height="30" as="geometry"/>
                </mxCell>
                <mxCell id="47" value="&quot;spazio&quot;" style="text;html=1;strokeColor=none;fillColor=none;align=center;verticalAlign=middle;whiteSpace=wrap;rounded=0;fontSize=17;fontStyle=2" vertex="1" parent="1">
                    <mxGeometry x="490" y="330" width="60" height="30" as="geometry"/>
                </mxCell>
                <mxCell id="48" value="&quot;spazio&quot;" style="text;html=1;strokeColor=none;fillColor=none;align=center;verticalAlign=middle;whiteSpace=wrap;rounded=0;fontSize=17;fontStyle=2" vertex="1" parent="1">
                    <mxGeometry x="550" y="330" width="60" height="30" as="geometry"/>
                </mxCell>
                <mxCell id="49" value="&quot;spazio&quot;" style="text;html=1;strokeColor=none;fillColor=none;align=center;verticalAlign=middle;whiteSpace=wrap;rounded=0;fontSize=17;fontStyle=2" vertex="1" parent="1">
                    <mxGeometry x="490" y="380" width="60" height="30" as="geometry"/>
                </mxCell>
                <mxCell id="50" value="&quot;spazio&quot;" style="text;html=1;strokeColor=none;fillColor=none;align=center;verticalAlign=middle;whiteSpace=wrap;rounded=0;fontSize=17;fontStyle=2" vertex="1" parent="1">
                    <mxGeometry x="490" y="430" width="60" height="30" as="geometry"/>
                </mxCell>
                <mxCell id="51" value="&quot;spazio&quot;" style="text;html=1;strokeColor=none;fillColor=none;align=center;verticalAlign=middle;whiteSpace=wrap;rounded=0;fontSize=17;fontStyle=2" vertex="1" parent="1">
                    <mxGeometry x="550" y="480" width="60" height="30" as="geometry"/>
                </mxCell>
                <mxCell id="52" value="&quot;spazio&quot;" style="text;html=1;strokeColor=none;fillColor=none;align=center;verticalAlign=middle;whiteSpace=wrap;rounded=0;fontSize=17;fontStyle=2" vertex="1" parent="1">
                    <mxGeometry x="550" y="380" width="60" height="30" as="geometry"/>
                </mxCell>
                <mxCell id="53" value="&quot;spazio&quot;" style="text;html=1;strokeColor=none;fillColor=none;align=center;verticalAlign=middle;whiteSpace=wrap;rounded=0;fontSize=17;fontStyle=2" vertex="1" parent="1">
                    <mxGeometry x="550" y="430" width="60" height="30" as="geometry"/>
                </mxCell>
                <mxCell id="54" value="Gli spazi chiaramente non servono e non dobbiamo &quot;stamparli&quot;" style="text;html=1;strokeColor=none;fillColor=none;align=center;verticalAlign=middle;whiteSpace=wrap;rounded=0;labelBorderColor=none;fontSize=22;fontStyle=1" vertex="1" parent="1">
                    <mxGeometry x="690" y="380" width="60" height="30" as="geometry"/>
                </mxCell>
            </root>
        </mxGraphModel>
    </diagram>
</mxfile>